<svg xmlns="http://www.w3.org/2000/svg" xmlns:xlink="http://www.w3.org/1999/xlink" version="1.1" id="Capa_1" x="0px" y="0px" viewBox="0 0 424.4 546.2" style="enable-background:new 0 0 424.4 546.2;" xml:space="preserve">
<style type="text/css">
	.st0{fill:#2cb0c2;}
	.st1{fill-rule:evenodd;clip-rule:evenodd;fill:#2cb0c2;}
</style>
<g id="Capa_1_1_">
</g>
<g>
	<path class="st0" d="M21.1,504.4H0V399.6h21.1V504.4z" fill="#343838"/>
	<path class="st0" d="M33.3,504.4v-79h19.4v9.2H53c4.1-7.5,10.8-11.3,20.1-11.3c13.4,0,20.1,7.5,20.1,22.5v58.6H72.9V450   c0-7.3-2.9-11-8.7-11c-7.1,0-10.7,4.4-10.7,13.1v52.4H33.3z" fill="#343838"/>
	<path class="st0" d="M108.2,425.5v-22.6h20.3v22.6h11.7v13.8h-11.7v42.8c0,3.1,0.4,5.3,1.2,6.5c1.1,1.5,3.1,2.2,6,2.2   c1.3,0,2.8,0,4.5,0v13.8c-5.9,0.6-10.3,0.9-13.2,0.9c-7.7,0-12.8-1.4-15.2-4.3c-2.4-2.8-3.6-8.4-3.6-16.6v-45.3H97.9v-13.8H108.2z" fill="#343838"/>
	<path class="st0" d="M184.8,504.4v-9.2h-0.3c-4.1,7.5-10.8,11.3-20.1,11.3c-13.4,0-20.1-7.5-20.1-22.5v-58.6h20.3v54.4   c0,7.3,2.9,11,8.7,11c7.1,0,10.7-4.4,10.7-13.1v-52.4h20.3v79H184.8z" fill="#343838"/>
	<path class="st0" d="M215.4,415.9v-17.3h20.3v17.3H215.4z M215.4,504.4v-79h20.3v79H215.4z" fill="#343838"/>
	<path class="st0" d="M252,425.8v-22.9h12.3v22.9H278v9.7h-13.6v50.6c0,3.2,0.6,5.5,1.7,6.8c1.1,1.3,3.3,2,6.4,2   c1,0,2.8-0.2,5.4-0.6v10.3c-3.2,0.6-6.6,0.9-10,0.9c-6.1,0-10.3-1.3-12.8-4c-2.1-2.3-3.1-6.1-3.1-11.6v-54.4h-11.4v-9.7H252z" fill="#343838"/>
	<path class="st0" d="M284.1,413.7v-14.1h12.3v14.1H284.1z M284.1,504.4v-78.7h12.3v78.7H284.1z" fill="#343838"/>
	<path class="st0" d="M306.6,465.1c0-27.6,9.4-41.4,28.3-41.4c18.9,0,28.3,13.8,28.3,41.4c0,27.6-9.4,41.4-28.3,41.4   C316,506.5,306.6,492.7,306.6,465.1z M334.6,496.8c10.5,0,15.7-10.6,15.7-31.7c0-9.9-1-17.3-2.9-22.3c-2.4-6.3-6.7-9.4-12.8-9.4   c-10.1,0-15.1,10.6-15.1,31.7C319.5,486.2,324.5,496.8,334.6,496.8z" fill="#343838"/>
	<path class="st0" d="M372.6,504.4v-78.7h11.7v9.2h0.3c1.6-3.5,4.2-6.3,7.9-8.4c3.4-2,7.1-2.9,11.2-2.9c9,0,15,3,18.1,9   c1.8,3.4,2.6,8.8,2.6,16v55.8h-12.3v-54.3c0-10.6-3.9-15.8-11.6-15.8c-3.9,0-7.3,1.2-10.3,3.7c-3.5,2.9-5.3,7-5.3,12.2v54.3H372.6z   " fill="#343838"/>
</g>
<g>
	<path class="st0" d="M5.4,542.5c1,0.6,2.7,1.3,4.4,1.3c2.4,0,3.5-1.2,3.5-2.7c0-1.6-0.9-2.4-3.3-3.3c-3.3-1.2-4.8-3-4.8-5.1   c0-2.9,2.4-5.3,6.3-5.3c1.8,0,3.4,0.5,4.4,1.1l-0.8,2.4c-0.7-0.4-2-1-3.7-1c-1.9,0-3,1.1-3,2.5c0,1.5,1,2.2,3.4,3.1   c3.1,1.2,4.8,2.7,4.8,5.5c0,3.2-2.5,5.5-6.7,5.5c-2,0-3.8-0.5-5.1-1.3L5.4,542.5z" fill="#343838"/>
	<path class="st0" d="M87.6,523.3v4.3h4.7v2.5h-4.7v9.8c0,2.3,0.6,3.5,2.5,3.5c0.9,0,1.4-0.1,1.9-0.2l0.1,2.5   c-0.6,0.2-1.6,0.5-2.9,0.5c-1.5,0-2.8-0.5-3.6-1.4c-0.9-1-1.3-2.6-1.3-4.8v-9.9h-2.8v-2.5h2.8v-3.3L87.6,523.3z" fill="#343838"/>
	<path class="st0" d="M174.3,540.9c0,1.9,0,3.5,0.1,4.9h-2.9l-0.2-3h-0.1c-0.8,1.5-2.8,3.4-6,3.4c-2.8,0-6.3-1.6-6.3-7.9v-10.6h3.3   v10c0,3.4,1.1,5.8,4,5.8c2.2,0,3.7-1.5,4.3-3c0.2-0.5,0.3-1,0.3-1.7v-11.1h3.3V540.9z" fill="#343838"/>
	<path class="st0" d="M258.4,519.2v21.9c0,1.6,0,3.4,0.1,4.7h-3l-0.2-3.1h-0.1c-1,2-3.2,3.6-6.1,3.6c-4.4,0-7.8-3.7-7.8-9.2   c0-6.1,3.8-9.7,8.1-9.7c2.8,0,4.7,1.3,5.5,2.7h0.1v-10.8H258.4z M255.1,535c0-0.5,0-1-0.1-1.4c-0.5-2.1-2.3-3.8-4.8-3.8   c-3.4,0-5.4,3-5.4,7c0,3.7,1.8,6.7,5.4,6.7c2.2,0,4.2-1.5,4.8-3.9c0.1-0.4,0.1-0.9,0.1-1.4V535z" fill="#343838"/>
	<path class="st0" d="M328.4,524.3c-1.2,0-2.1-1-2.1-2.1s0.9-2.1,2.1-2.1c1.3,0,2.1,0.9,2.1,2.1S329.8,524.3,328.4,524.3   L328.4,524.3z M326.9,545.8v-18.1h3.3v18.1H326.9z" fill="#343838"/>
	<path class="st0" d="M406,546.2c-4.9,0-8.7-3.6-8.7-9.3c0-6.1,4-9.6,9-9.6c5.2,0,8.7,3.8,8.7,9.3   C415.1,543.3,410.4,546.2,406,546.2L406,546.2z M406.1,543.7c3.1,0,5.5-3,5.5-7.1c0-3.1-1.5-6.9-5.4-6.9c-3.9,0-5.5,3.6-5.5,7   C400.7,540.7,402.9,543.7,406.1,543.7L406.1,543.7z" fill="#343838"/>
</g>
<g>
	<path class="st1" d="M125.3,213.4c0.5,21.4,8.2,39.8,21.5,56.2c8,9.8,16.2,19.5,23.6,29.8c13.6,18.7,19.5,40,19.5,63   c0,9.6-8.3,17.6-17.8,17.9c-9.6,0.3-18.5-8.2-18.4-18.1c0.3-16.7-5.1-31.7-15.3-44.9c-7-9.2-14.6-18-21.8-27.1   c-12.4-15.7-21-33.2-24.9-53c-9.9-49.8,12.5-100.6,55.9-127.1c9.6-5.9,19.9-10.3,30.7-13.3c8-2.2,16.2-3.6,24.6-4   c11.7-0.7,23.2,0,34.5,2.9c39.1,9.9,67.8,33.1,83.4,70.3c18.2,43.5,11.9,84.7-16.3,122.4c-7.4,9.8-15.5,19-23,28.8   c-7.9,10.4-12.8,22.1-14.3,35.2c-0.9,7.5-6.2,13.6-13.2,15.5c-7.3,1.9-14.6-0.5-19.2-6.6c-2.9-3.8-3.5-8.3-2.9-12.9   c2.5-21.1,11.1-39.6,24.2-56.2c7.3-9.3,15.1-18.2,22.2-27.6c25.5-33.8,22.4-80.6-7.6-110.4c-23.7-23.6-52.5-31.1-84.4-21.7   c-31.3,9.2-50.7,31-58.5,62.7C126.4,201.2,126.1,207.3,125.3,213.4z" fill="#343838"/>
	<path class="st1" d="M193.1,189.3c10.9,0.4,19.9,4.9,28.2,11.4c1.5,1.2,2.9,2.4,4.5,3.4c2.3,1.5,3.9,1.3,5.9-0.7   c0.9-0.9,1.6-2,2.3-2.9c6-7.6,16.7-9.5,24.1-4.3c8,5.6,10.4,16.3,5,24.5c-12,18.3-34.6,27.6-57.2,13.7c-3.1-1.9-5.9-4.3-8.8-6.5   c-4.4-3.4-6.4-3.1-9.6,1.5c-4.2,5.8-9.9,8.6-17,7.8c-7.1-0.8-12.2-4.7-14.8-11.4c-2.1-5.4-1.5-10.9,1.6-15.8   c6.4-9.7,15-16.5,26.4-19.5C186.7,189.7,189.9,189.7,193.1,189.3z" fill="#343838"/>
</g>
<g>
	<path class="st0" d="M209.3,78.1c-8.6,0-15.6-7-15.6-15.6V15.6c0-8.6,7-15.6,15.6-15.6S225,7,225,15.6v46.9   C225,71.1,218,78.1,209.3,78.1z" fill="#343838"/>
</g>
<g>
	<path class="st0" d="M60.3,244.7H22.2c-6.9,0-12.5-5.6-12.5-12.5s5.6-12.5,12.5-12.5h38.1c6.9,0,12.5,5.6,12.5,12.5   S67.2,244.7,60.3,244.7z" fill="#343838"/>
</g>
<g>
	<path class="st0" d="M399,244.7h-38.1c-6.9,0-12.5-5.6-12.5-12.5s5.6-12.5,12.5-12.5H399c6.9,0,12.5,5.6,12.5,12.5   S405.9,244.7,399,244.7z" fill="#343838"/>
</g>
<g>
	<path class="st0" d="M79.7,130c-3.5,0-7-1.3-9.7-4L36.8,92.8c-5.4-5.4-5.4-14.1,0-19.4c5.4-5.4,14.1-5.4,19.4,0l33.1,33.1   c5.4,5.4,5.4,14.1,0,19.4C86.7,128.7,83.2,130,79.7,130z" fill="#343838"/>
</g>
<g>
	<path class="st0" d="M334,135c-3.5,0-7-1.3-9.7-4c-5.4-5.4-5.4-14.1,0-19.4l33.1-33.1c5.4-5.4,14.1-5.4,19.4,0   c5.4,5.4,5.4,14.1,0,19.4L343.7,131C341,133.7,337.5,135,334,135z" fill="#343838"/>
</g>
</svg>