<?xml version="1.0" encoding="utf-8"?>
<!-- Generator: Adobe Illustrator 16.0.0, SVG Export Plug-In . SVG Version: 6.00 Build 0)  -->
<!DOCTYPE svg PUBLIC "-//W3C//DTD SVG 1.1//EN" "http://www.w3.org/Graphics/SVG/1.1/DTD/svg11.dtd">
<svg version="1.1" id="Capa_1" xmlns="http://www.w3.org/2000/svg" xmlns:xlink="http://www.w3.org/1999/xlink" x="0px" y="0px"
	 width="46.621px" height="60px" viewBox="188.894 243.105 46.621 60" enable-background="new 188.894 243.105 46.621 60"
	 xml:space="preserve">
<g id="Capa_1_1_">
</g>
<g id="Modo_de_aislamiento">
	<g>
		<g>
			<path fill="#00ABE4" d="M191.217,298.518h-2.323v-11.512h2.323V298.518z"/>
			<path fill="#00ABE4" d="M192.554,298.518v-8.673h2.128v1.014h0.032c0.451-0.826,1.188-1.24,2.208-1.24
				c1.474,0,2.209,0.822,2.209,2.466v6.434h-2.225v-5.98c0-0.807-0.317-1.211-0.952-1.211c-0.784,0-1.177,0.479-1.177,1.434v5.758
				H192.554L192.554,298.518z"/>
			<path fill="#00ABE4" d="M200.776,289.845v-2.485H203v2.485h1.29v1.515H203v4.704c0,0.346,0.042,0.583,0.128,0.711
				c0.118,0.163,0.339,0.242,0.662,0.242c0.14,0,0.306,0,0.5,0v1.518c-0.645,0.063-1.129,0.096-1.451,0.096
				c-0.85,0-1.406-0.157-1.669-0.468c-0.263-0.314-0.394-0.922-0.394-1.828v-4.975h-1.129v-1.516L200.776,289.845L200.776,289.845z"
				/>
			<path fill="#00ABE4" d="M209.19,298.518V297.5h-0.032c-0.451,0.827-1.188,1.242-2.208,1.242c-1.474,0-2.209-0.824-2.209-2.468
				v-6.43h2.225v5.98c0,0.804,0.317,1.207,0.952,1.207c0.783,0,1.177-0.478,1.177-1.434v-5.755h2.225v8.673L209.19,298.518
				L209.19,298.518z"/>
			<path fill="#00ABE4" d="M212.56,288.796v-1.903h2.225v1.903H212.56z M212.56,298.518v-8.673h2.225v8.673H212.56z"/>
			<path fill="#00ABE4" d="M216.575,289.875v-2.516h1.354v2.516h1.497v1.063h-1.497v5.56c0,0.355,0.062,0.608,0.185,0.752
				c0.123,0.147,0.356,0.219,0.701,0.219c0.108,0,0.306-0.022,0.596-0.063v1.126c-0.354,0.065-0.719,0.099-1.097,0.099
				c-0.665,0-1.133-0.146-1.402-0.438c-0.227-0.247-0.337-0.672-0.337-1.276v-5.978h-1.259v-1.063H216.575L216.575,289.875z"/>
			<path fill="#00ABE4" d="M220.105,288.555v-1.549h1.354v1.549H220.105z M220.105,298.518v-8.643h1.354v8.643H220.105z"/>
			<path fill="#00ABE4" d="M222.571,294.196c0-3.031,1.037-4.548,3.11-4.548s3.111,1.517,3.111,4.548s-1.038,4.546-3.111,4.546
				C223.609,298.742,222.571,297.228,222.571,294.196z M225.648,297.677c1.151,0,1.727-1.158,1.727-3.48
				c0-1.087-0.108-1.904-0.324-2.451c-0.267-0.688-0.734-1.03-1.402-1.03c-1.104,0-1.659,1.158-1.659,3.481
				C223.989,296.519,224.543,297.677,225.648,297.677z"/>
			<path fill="#00ABE4" d="M229.825,298.518v-8.643h1.29v1.018h0.03c0.172-0.388,0.463-0.693,0.871-0.92
				c0.378-0.216,0.786-0.324,1.226-0.324c0.989,0,1.649,0.329,1.983,0.984c0.192,0.378,0.29,0.964,0.29,1.757v6.128h-1.354v-5.966
				c0-1.161-0.427-1.741-1.274-1.741c-0.429,0-0.807,0.133-1.127,0.403c-0.389,0.323-0.581,0.768-0.581,1.338v5.966H229.825z"/>
		</g>
		<g>
			<path fill="#00ABE4" d="M189.193,300.135h0.362v1.25h0.008c0.128-0.223,0.358-0.364,0.679-0.364c0.494,0,0.84,0.411,0.84,1.015
				c0,0.716-0.452,1.07-0.898,1.07c-0.287,0-0.514-0.111-0.666-0.374h-0.009l-0.02,0.328h-0.314
				c0.012-0.135,0.016-0.339,0.016-0.516v-2.409H189.193z M189.555,302.263c0,0.043,0.004,0.089,0.012,0.131
				c0.071,0.25,0.285,0.424,0.544,0.424c0.383,0,0.606-0.309,0.606-0.767c0-0.403-0.206-0.746-0.594-0.746
				c-0.247,0-0.478,0.173-0.547,0.446c-0.013,0.046-0.021,0.093-0.021,0.15V302.263z"/>
			<path fill="#00ABE4" d="M197.734,302.517c0,0.204,0.003,0.389,0.017,0.543h-0.321l-0.021-0.324h-0.008
				c-0.09,0.159-0.306,0.37-0.66,0.37c-0.312,0-0.687-0.177-0.687-0.873v-1.166h0.362v1.101c0,0.377,0.12,0.639,0.445,0.639
				c0.244,0,0.412-0.17,0.479-0.335c0.02-0.05,0.033-0.115,0.033-0.185v-1.22h0.362V302.517z"/>
			<path fill="#00ABE4" d="M202.818,302.693c0.11,0.065,0.3,0.14,0.481,0.14c0.259,0,0.383-0.128,0.383-0.297
				c0-0.173-0.103-0.266-0.366-0.365c-0.364-0.132-0.533-0.327-0.533-0.565c0-0.32,0.264-0.585,0.688-0.585
				c0.202,0,0.379,0.054,0.487,0.126l-0.087,0.258c-0.079-0.046-0.223-0.115-0.408-0.115c-0.215,0-0.331,0.123-0.331,0.273
				c0,0.168,0.116,0.242,0.375,0.339c0.342,0.13,0.523,0.303,0.523,0.604c0,0.354-0.275,0.601-0.741,0.601
				c-0.219,0-0.421-0.058-0.56-0.139L202.818,302.693z"/>
			<path fill="#00ABE4" d="M209.202,300.7c-0.136,0-0.227-0.107-0.227-0.234s0.095-0.23,0.235-0.23c0.141,0,0.231,0.104,0.231,0.23
				s-0.09,0.234-0.235,0.234H209.202z M209.029,303.06v-1.993h0.362v1.993H209.029z"/>
			<path fill="#00ABE4" d="M214.525,301.605c0-0.209-0.008-0.374-0.02-0.539h0.323l0.02,0.326h0.008
				c0.1-0.185,0.331-0.372,0.661-0.372c0.274,0,0.704,0.165,0.704,0.85v1.189h-0.364v-1.147c0-0.322-0.12-0.592-0.462-0.592
				c-0.235,0-0.42,0.166-0.485,0.369c-0.016,0.046-0.023,0.111-0.023,0.169v1.201h-0.361V301.605z"/>
			<path fill="#00ABE4" d="M221.544,302.125c0.011,0.491,0.319,0.692,0.681,0.692c0.259,0,0.42-0.046,0.551-0.1l0.068,0.257
				c-0.13,0.058-0.35,0.127-0.669,0.127c-0.608,0-0.98-0.407-0.98-1.004c0-0.607,0.36-1.081,0.938-1.081
				c0.653,0,0.819,0.573,0.819,0.938c0,0.077-0.004,0.135-0.012,0.174L221.544,302.125z M222.603,301.866
				c0.007-0.227-0.093-0.589-0.497-0.589c-0.37,0-0.527,0.339-0.558,0.589H222.603z"/>
			<path fill="#00ABE4" d="M227.886,302.693c0.111,0.065,0.3,0.14,0.481,0.14c0.258,0,0.381-0.128,0.381-0.297
				c0-0.173-0.101-0.266-0.366-0.365c-0.361-0.132-0.53-0.327-0.53-0.565c0-0.32,0.265-0.585,0.688-0.585
				c0.2,0,0.377,0.054,0.485,0.126l-0.086,0.258c-0.08-0.046-0.223-0.115-0.407-0.115c-0.216,0-0.331,0.123-0.331,0.273
				c0,0.168,0.115,0.242,0.374,0.339c0.342,0.13,0.523,0.303,0.523,0.604c0,0.354-0.274,0.601-0.74,0.601
				c-0.219,0-0.419-0.058-0.561-0.139L227.886,302.693z"/>
			<path fill="#00ABE4" d="M234.047,302.693c0.111,0.065,0.3,0.14,0.481,0.14c0.258,0,0.384-0.128,0.384-0.297
				c0-0.173-0.104-0.266-0.368-0.365c-0.362-0.132-0.531-0.327-0.531-0.565c0-0.32,0.265-0.585,0.688-0.585
				c0.2,0,0.378,0.054,0.485,0.126l-0.085,0.258c-0.081-0.046-0.224-0.115-0.408-0.115c-0.215,0-0.331,0.123-0.331,0.273
				c0,0.168,0.116,0.242,0.377,0.339c0.34,0.13,0.523,0.303,0.523,0.604c0,0.354-0.276,0.601-0.742,0.601
				c-0.219,0-0.42-0.058-0.562-0.139L234.047,302.693z"/>
		</g>
		<g>
			<g>
				<g>
					<path fill="#00ABE4" d="M202.654,266.544c0.054,2.35,0.898,4.376,2.363,6.177c0.877,1.079,1.773,2.145,2.588,3.27
						c1.491,2.057,2.142,4.395,2.137,6.924c-0.002,1.054-0.909,1.93-1.95,1.963c-1.058,0.03-2.036-0.906-2.02-1.989
						c0.032-1.831-0.562-3.485-1.676-4.932c-0.773-1.008-1.6-1.978-2.389-2.974c-1.367-1.725-2.31-3.649-2.739-5.82
						c-1.083-5.471,1.375-11.052,6.146-13.958c1.058-0.644,2.184-1.135,3.371-1.458c0.879-0.24,1.78-0.391,2.701-0.443
						c1.286-0.072,2.553,0.003,3.792,0.318c4.297,1.092,7.446,3.636,9.159,7.727c1.999,4.779,1.308,9.3-1.793,13.442
						c-0.809,1.077-1.705,2.088-2.523,3.162c-0.87,1.14-1.406,2.43-1.57,3.869c-0.092,0.827-0.678,1.495-1.449,1.7
						c-0.803,0.212-1.607-0.057-2.111-0.723c-0.317-0.421-0.381-0.905-0.321-1.419c0.272-2.319,1.223-4.35,2.653-6.168
						c0.803-1.018,1.654-1.998,2.437-3.033c2.797-3.707,2.461-8.853-0.835-12.13c-2.605-2.588-5.764-3.417-9.269-2.382
						c-3.44,1.016-5.571,3.401-6.421,6.891C202.775,265.204,202.744,265.88,202.654,266.544z"/>
				</g>
				<g>
					<path fill="#00ABE4" d="M210.106,263.896c1.194,0.038,2.189,0.539,3.1,1.254c0.163,0.128,0.32,0.265,0.489,0.375
						c0.26,0.166,0.432,0.142,0.644-0.075c0.097-0.098,0.172-0.215,0.258-0.322c0.655-0.834,1.831-1.042,2.65-0.471
						c0.875,0.609,1.142,1.794,0.548,2.696c-1.313,2.008-3.795,3.032-6.281,1.5c-0.341-0.21-0.65-0.476-0.972-0.72
						c-0.488-0.368-0.703-0.336-1.058,0.161c-0.457,0.641-1.083,0.949-1.866,0.861c-0.783-0.087-1.344-0.518-1.629-1.25
						c-0.231-0.593-0.169-1.196,0.18-1.73c0.699-1.064,1.65-1.811,2.896-2.139C209.401,263.947,209.76,263.939,210.106,263.896z"/>
				</g>
			</g>
			<g>
				<path fill="#00ABE4" d="M211.889,251.687c-0.947,0-1.715-0.768-1.715-1.717v-5.147c0-0.949,0.768-1.717,1.715-1.717
					c0.949,0,1.717,0.768,1.717,1.717v5.147C213.606,250.918,212.838,251.687,211.889,251.687z"/>
			</g>
			<g>
				<path fill="#00ABE4" d="M195.518,269.979h-4.186c-0.759,0-1.374-0.615-1.374-1.373c0-0.757,0.615-1.372,1.374-1.372h4.186
					c0.758,0,1.373,0.615,1.373,1.372C196.891,269.365,196.276,269.979,195.518,269.979z"/>
			</g>
			<g>
				<path fill="#00ABE4" d="M232.723,269.979h-4.186c-0.759,0-1.375-0.615-1.375-1.373c0-0.757,0.616-1.372,1.375-1.372h4.186
					c0.759,0,1.375,0.615,1.375,1.372C234.098,269.365,233.482,269.979,232.723,269.979z"/>
			</g>
			<g>
				<path fill="#00ABE4" d="M197.647,257.384c-0.386,0-0.772-0.147-1.067-0.442l-3.642-3.64c-0.589-0.59-0.589-1.546,0-2.136
					c0.591-0.589,1.546-0.589,2.136,0l3.642,3.64c0.589,0.591,0.589,1.546,0,2.136C198.42,257.237,198.033,257.384,197.647,257.384z
					"/>
			</g>
			<g>
				<path fill="#00ABE4" d="M225.582,257.934c-0.385,0-0.772-0.147-1.066-0.442c-0.59-0.59-0.59-1.546,0-2.136l3.64-3.64
					c0.59-0.59,1.548-0.59,2.138,0c0.59,0.589,0.59,1.546,0,2.136l-3.641,3.64C226.357,257.787,225.969,257.934,225.582,257.934z"/>
			</g>
		</g>
	</g>
</g>
</svg>
